<svg viewBox="0 0 32 32" xmlns="http://www.w3.org/2000/svg"><g id="Layer_24" data-name="Layer 24"><path d="m12.61285 8.93506a2.42129 2.42129 0 1 0 -2.395-2.4209 2.411 2.411 0 0 0 2.395 2.4209zm0-3.84229a1.42139 1.42139 0 1 1 -1.395 1.42139 1.41024 1.41024 0 0 1 1.395-1.42139zm7.957 13.17188a2.04284 2.04284 0 1 0 -2.02148-2.04248 2.03457 2.03457 0 0 0 2.02151 2.04248zm0-3.08545a1.04295 1.04295 0 1 1 -1.02148 1.043 1.03376 1.03376 0 0 1 1.02151-1.043zm2.522 4.29541a1.78365 1.78365 0 0 0 -1.30127-.55615h-1.40136a2.509 2.509 0 0 1 -1.563-.54883l-2.00922-1.60913v-4.88892a2.435 2.435 0 0 0 -2.43262-2.43213h-3.543a2.43459 2.43459 0 0 0 -2.43213 2.43213v6.88916a.49971.49971 0 0 0 .5.5h1.03466l.26221 8.1626a.49957.49957 0 0 0 .49951.48389h3.81494a.49957.49957 0 0 0 .49951-.48389l.26172-8.1626h.805l2.32976 2.72026.32569 5.45605a.49973.49973 0 0 0 .499.47022h2.65775a.49974.49974 0 0 0 .499-.47022l.165-2.7666h.375a.49973.49973 0 0 0 .49951-.47754l.15137-3.394a1.78435 1.78435 0 0 0 -.49702-1.3243zm-7.27485-1.21387h-1.01958a.49957.49957 0 0 0 -.49951.48389l-.26172 8.1626h-2.84619l-.26221-8.1626a.49957.49957 0 0 0 -.49951-.48389h-1.019v-6.38916a1.43392 1.43392 0 0 1 1.43213-1.43213h3.543a1.434 1.434 0 0 1 1.43259 1.43213zm6.643 5.40967h-.36816a.49974.49974 0 0 0 -.499.47021l-.165 2.76661h-1.71538l-.30761-5.15381a.5.5 0 0 0 -.11914-.29541l-2.46871-2.8822v-.53449l1.38427 1.10858a3.5117 3.5117 0 0 0 2.188.76856h1.40137a.79943.79943 0 0 1 .79931.83545z"/></g></svg>