<svg id="Layer_1" enable-background="new 0 0 512 512" viewBox="0 0 512 512" xmlns="http://www.w3.org/2000/svg"><path d="m104.4 141.4c25.2 0 45.8-20.5 45.8-45.7-2.3-60.6-89.2-60.6-91.5 0 0 25.2 20.5 45.7 45.7 45.7zm0-80.7c19.3 0 34.9 15.7 34.9 34.9-1.6 46.2-68.2 46.2-69.9 0 .1-19.2 15.7-34.9 35-34.9zm-48.3 109.2 10.7-8.3c5.5 3.1 11.3 5.6 17.4 7.2l1.7 13.5c.6 4.5 4.5 7.9 9.1 7.9h18.7c4.6 0 8.5-3.4 9-8l1.7-13.4c6.1-1.7 11.9-4.1 17.5-7.2l10.7 8.3c3.6 2.8 8.8 2.5 12.1-.8l13.3-13.1c3.2-3.2 3.6-8.4.8-12.1l-8.3-10.7c3.1-5.5 5.6-11.3 7.2-17.5l13.4-1.7c4.6-.5 8-4.4 8-9.1v-18.6c0-4.6-3.4-8.5-8-9l-13.4-1.7c-1.7-6.1-4.1-12-7.2-17.5l8.3-10.7c2.8-3.6 2.4-8.8-.8-12l-13.2-13.2c-3.3-3.3-8.5-3.6-12.1-.8l-10.7 8.2c-5.5-3.2-11.4-5.6-17.5-7.2l-1.7-13.4c-.5-4.6-4.4-8-9.1-8h-18.6c-4.6 0-8.5 3.4-9.1 8l-1.7 13.4c-6.1 1.7-11.9 4.1-17.4 7.2l-10.7-8.3c-3.6-2.9-8.8-2.5-12.1.7l-13.2 13.3c-3.3 3.2-3.6 8.4-.8 12.1l8.3 10.7c-3.1 5.5-5.6 11.4-7.2 17.5l-13.4 1.7c-4.6.5-8 4.4-8 9.1v18.6c0 4.6 3.5 8.5 8 9l13.4 1.7c1.7 6.1 4.1 11.9 7.2 17.5l-8.3 10.7c-2.8 3.7-2.5 8.8.8 12l13.2 13.2c3.3 3.4 8.5 3.7 12 .8zm-6.6-39.2c-4.1-6.5-7.1-13.6-8.7-21-.5-2.2-2.3-3.9-4.6-4.2l-15.6-2v-15.7l15.6-2c2.3-.3 4.1-2 4.6-4.2 1.6-7.4 4.6-14.5 8.7-21 1.2-1.9 1.1-4.4-.3-6.2l-9.7-12.4 11.1-11.1 12.5 9.7c1.8 1.4 4.3 1.5 6.2.3 6.5-4.1 13.5-7.1 21-8.7 2.2-.5 3.9-2.3 4.2-4.6l2-15.6h15.7l2 15.6c.3 2.3 2 4.1 4.2 4.6 7.4 1.6 14.5 4.6 21 8.7 1.9 1.2 4.4 1.1 6.2-.3l12.4-9.7 11.1 11.1-9.7 12.4c-1.4 1.8-1.5 4.3-.3 6.2 4.1 6.4 7 13.5 8.7 21 .5 2.2 2.3 3.9 4.6 4.2l15.6 2v15.7l-15.6 2c-2.3.3-4.1 2-4.6 4.2-1.7 7.5-4.6 14.6-8.7 21-1.2 1.9-1.1 4.4.3 6.2l9.7 12.4-11.1 11.1-12.4-9.7c-1.8-1.4-4.3-1.5-6.2-.3-6.5 4.1-13.6 7.1-21 8.7-2.2.5-3.9 2.3-4.2 4.6l-2 15.6h-15.7l-2-15.6c-.3-2.3-2-4.1-4.2-4.6-7.5-1.6-14.5-4.6-21-8.7-1.9-1.2-4.4-1.1-6.2.3l-12.5 9.7-11.1-11.1 9.7-12.4c1.4-1.8 1.5-4.3.3-6.2zm379.8 169.1c-2.7-15.7-19-20-32-24.6-5.9-2.1-12.2-5.6-18.7-4.9l-1.5-10c7.8-7.2 12.6-17 13.7-27.7 31.7-42.9-12.2-96-57.3-57.6-28.4 3.9-33.8 36-15.5 57.6 1.1 10.5 5.9 20.2 13.6 27.6l-1.5 10.1c-11.9.1-22.6 8.1-34.2 10.6-8.4 3.1-14.6 10.1-16.5 18.9l-14 63.8c-1.1 4.9.8 9.9 4.8 12.8 50.1 37.5 118.3 37.5 168.4 0 4-2.9 5.8-7.9 4.8-12.8zm-105.5-89.2c-1.2 1.9-2.2 3.9-3.2 6-4-9.4-3-18.8 1.3-24.2 4.1-5.1 10.9-6.6 14.5-7 1.2-.1 2.3-.7 3.2-1.5 28.3-26.4 61-2.8 48 32.4-4.7-9.2-12.6-17-23-17.1h-22.3c-7.9-.1-14.4 4.8-18.5 11.4zm5.1 18.9c-.2-7.1 2-14.1 8.3-17.5 2.3-1.3 5-1.6 7.7-1.8 8-.3 16.5-1.3 24.1 1.6 23 11.8 6.1 45.8-14.6 49.1-14.3-3.5-25.2-16.3-25.5-31.4zm39.3 45c-4.5 2.6-9.5 5.5-13.9 8.1l-13.1-7.6-.9-.5 1.1-7.2c4.1 2.1 8 4.9 12.9 4.6 4.8.3 8.7-2.5 12.8-4.6zm-36.4 7.4 10.1 5.9c2.6 1.2 10.7 7.4 13.4 6.3 3.9-.7 20.6-12.9 24.8-13l-22.5 15.7c-1.9 1.3-4.4 1.3-6.3 0l-22.5-15.6c1-.1 2 .2 3 .7zm100.3 85.8c-45.6 34.3-113 35.9-156.2-1.8 0 0 14-63.8 14-63.8 1.1-5.1 4.7-9.2 9.7-11l16.1-5.9c45.6 31.1 31.8 31.1 77.3 0l16 5.8c4.9 1.8 8.6 6 9.7 11l14 63.9c.1.7-.1 1.4-.6 1.8zm33.3-291.4h-222.1c-20.3 0-36.9 16.5-36.9 36.9v96.2c-19.2-19.3-50.2-16.6-70.1 1.3-38.5 4.9-42.1 52.6-15 76.2 3.1 7.8 7.9 14.8 14.1 20.5l-2.3 15.6c-3.6-.6-7.3-.4-10.8.9l-34.3 12.5c-10.4 3.8-18.1 12.5-20.4 23.3l-26.4 119.3c-4 15.8 9.3 32.4 25.6 31.9h398.5c20.3 0 36.9-16.5 36.9-36.9v-360.8c0-20.3-16.5-36.9-36.8-36.9zm-336.6 203.4c-13.5-13-23-42.1-3.1-54 4.8-2.8 10.5-3.7 15.5-6.1 3.6-1.7 6.7-4.2 10.1-6.3 15.7-10.3 40-9 50.3 8 9.4 18.5 6.8 45-7.1 60.4-17.3 18.1-48.7 15.3-65.7-2zm77.6 5.8v39c-4.1-1.7-8.6-2.5-13.1-1.5l-2.3-15.5c7.2-5.9 10.9-14.4 15.4-22zm-23.4 41.2c-12.7 4.4-26.9 4.3-39.6-.1 1-7.7 2.9-15.4 3-23.2 11.2.6 22.6 2 33.8 0-.6 7.7 2 15.5 2.8 23.3zm88.9 168c-4.1 5-11.6 5.4-18.1 5.4-61.4 0-122.8 0-184.2-.1-16.6 1.2-19.9-10.4-16.3-25.1 7.6-35.3 15.3-70.5 23-105.8 2.8-21.6 17.7-24.2 35.9-30.2 5.5-2.1 10.9-5.1 16.8-5.2 5.2 0 10.1 2.2 15.1 3.9 12.4 4.1 26 4.1 38.4 0 4.9-1.6 9.8-3.9 15-3.9 6 0 11.4 3.1 17 5.2 10.7 4.1 23.5 5.8 30.2 15.1 3.1 4.3 4.3 9.7 5.4 14.9 7.8 35.7 15.6 71.5 23.3 107.2 1.4 6.5 2.6 13.7-1.5 18.6zm193.5-19.6h-181l-25.4-115.5c-2.1-9.5-8.2-17.3-16.7-21.7v-224.7c-.3-3 222.2.1 223.1-1 .5 0 1 .5 1 1-1.1 1.2 1.9 362-1 361.9zm26-1c0 14.4-11.7 26.1-26.1 26.1h-184.5c3-4.2 4.8-9.1 5-14.2h179.6c6.5 0 11.8-5.3 11.8-11.8v-361c0-6.5-5.3-11.8-11.8-11.8h-222.2c-6.5 0-11.8 5.3-11.8 11.8v220.5c-1.8-.6-12.2-4.5-14.2-5.2 0-55.5.1-158.9 0-215.3 0-14.4 11.7-26.1 26.1-26.1h222.1c14.4 0 26.1 11.7 26.1 26.1v360.9z"/></svg>