<svg id="icons" enable-background="new 0 0 64 64" height="512" viewBox="0 0 64 64" width="512" xmlns="http://www.w3.org/2000/svg"><g><path d="m3 56.993c.045 0 .082-.02.125-.025.043.006.081.025.126.025h28.776c.261.369.529.731.819 1.077.01.014.023.023.033.037 1.704 2.023 3.882 3.631 6.364 4.652.004.002.008.003.012.005 1.93.792 4.035 1.236 6.245 1.236 5.061 0 9.591-2.295 12.62-5.893.01-.014.023-.023.033-.037 2.399-2.865 3.847-6.55 3.847-10.57 0-3.23-.947-6.238-2.559-8.785-.011-.018-.019-.035-.031-.051-2.227-3.494-5.727-6.087-9.846-7.137-.016-.005-.03-.007-.046-.012-.499-.125-1.005-.227-1.521-.306v-30.209c0-.552-.447-1-1-1h-43.997c-.553 0-1 .448-1 1v54.993c0 .553.447 1 1 1zm4-51.993h9.881l.224.447c.048.095.109.176.179.248.015.015.032.024.048.038.071.065.149.118.235.159.029.015.058.027.089.039.109.04.223.068.341.069h.002 14 .002c.118 0 .232-.028.342-.069.031-.012.06-.024.089-.039.086-.041.164-.094.235-.159.016-.013.033-.023.047-.038.07-.072.132-.153.18-.248l.223-.447h9.881v26.21c-.517.079-1.023.181-1.523.307-.012.003-.023.005-.035.009-4.12 1.049-7.621 3.642-9.849 7.136-.015.019-.023.04-.037.06-1.609 2.546-2.554 5.55-2.554 8.778 0 1.561.232 3.065.639 4.497l-22.639-.004zm24.381-1h-12.764l-1-2h14.764zm8.439 30.161-1.602 3.247-3.585.523c1.422-1.611 3.184-2.913 5.187-3.77zm-6.73 20.798c-1.129-1.869-1.848-4.006-2.031-6.298l2.667 2.597zm9.034 6.628 3.376-1.773 3.376 1.773c-1.085.261-2.212.413-3.376.413s-2.291-.152-3.376-.413zm9.355-.893-5.515-2.896c-.291-.152-.639-.152-.93 0l-5.515 2.896c-1.831-.833-3.454-2.036-4.784-3.513l1.05-6.104c.056-.325-.052-.656-.288-.887l-4.405-4.289c.228-2.066.899-3.997 1.905-5.711l6.029-.881c.325-.047.606-.252.752-.547l2.682-5.438c.982-.208 1.997-.324 3.04-.324s2.058.116 3.039.326l2.682 5.438c.146.295.427.5.752.547l6.03.881c1.005 1.713 1.676 3.644 1.904 5.71l-4.405 4.29c-.236.23-.344.562-.288.887l1.05 6.104c-1.33 1.475-2.953 2.678-4.785 3.511zm5.795-9.436 2.667-2.598c-.183 2.292-.902 4.43-2.031 6.299zm-.908-13.326-3.585-.523-1.602-3.247c2.004.856 3.766 2.158 5.187 3.77zm-10.368-6.907c-.167-.005-.33-.025-.498-.025-.17 0-.334.021-.502.025v-27.025c0-.552-.447-1-1-1h-9.881l.5-1h11.38zm-30.617-29.025.5 1h-9.881c-.553 0-1 .448-1 1v48.993c0 .552.447 1 1 1l24.338.004c.146.34.313.668.48.996h-26.818v-52.993z"/><path d="m13.02 41.006c-2.206 0-4 1.794-4 4s1.794 4 4 4 4-1.794 4-4-1.794-4-4-4zm0 6c-1.103 0-2-.897-2-2s.897-2 2-2 2 .897 2 2-.898 2-2 2z"/><path d="m13.05 44.006h-.011c-.552 0-.994.447-.994 1s.452 1 1.005 1c.552 0 1-.447 1-1s-.448-1-1-1z"/><path d="m34.02 22.998c2.206 0 4-1.794 4-4 0-1.858-1.279-3.411-3-3.858v-.142h3.999.001c.118 0 .235-.027.351-.071.02-.007.038-.012.057-.02.013-.006.026-.008.039-.014.045-.022.074-.061.114-.089.059-.042.119-.079.168-.131.044-.048.073-.104.106-.159.034-.054.07-.104.093-.165.026-.068.033-.139.043-.211.007-.048.028-.09.028-.14 0-.011-.006-.02-.006-.03-.002-.066-.024-.13-.04-.196-.016-.065-.023-.131-.052-.19-.004-.01-.003-.021-.008-.03l-.776-1.553.776-1.553c.005-.01.004-.021.008-.03.028-.059.036-.125.052-.19.016-.066.038-.13.04-.196 0-.011.006-.02.006-.03 0-.049-.021-.092-.028-.14-.01-.072-.017-.143-.043-.211-.022-.061-.059-.11-.093-.165-.033-.055-.063-.111-.106-.159-.049-.053-.109-.09-.168-.131-.04-.028-.069-.066-.114-.089-.01-.005-.021-.004-.03-.008-.06-.027-.126-.036-.191-.052-.065-.015-.129-.038-.195-.039-.011 0-.02-.006-.03-.006h-5.001c-.553 0-1 .448-1 1v5.142c-1.721.447-3 2-3 3.858 0 2.204 1.793 3.998 4 3.998zm3.104-10.553.276.553h-2.38v-2h2.38l-.276.553c-.141.282-.141.613 0 .894zm-4.104 4.831v1.722c0 .552.447 1 1 1s1-.448 1-1v-1.722c.595.347 1 .985 1 1.722 0 1.103-.897 2-2 2s-2-.897-2-2c0-.737.405-1.375 1-1.722z"/><path d="m28.994 22.18c.013-.063.016-.124.016-.188-.001-.042-.006-.08-.012-.12-.002-.018-.002-.034-.006-.051 0-.005 0-.01-.001-.015-.007-.035 0-.07-.011-.105-.014-.043-.044-.074-.063-.114-.006-.013-.013-.023-.02-.036-.016-.032-.031-.064-.051-.094 0 0-.001-.001-.001-.002-.151-.229-.38-.382-.646-.431-.001 0-.002 0-.003-.001h-.001l-2.863-.955c-.529-.176-1.09.109-1.265.632-.175.524.108 1.09.632 1.265l.418.139c-4.068 1.947-11.577 6.823-13.096 16.758-.084.546.291 1.057.837 1.14.052.008.103.012.152.012.485 0 .912-.354.987-.849 1.28-8.376 7.478-12.869 11.288-14.879l-.111.167c-.307.459-.183 1.081.277 1.387.17.114.363.168.554.168.323 0 .64-.156.833-.445l1.939-2.907c.041-.049.072-.104.104-.162.015-.024.026-.047.038-.071.014-.031.035-.056.046-.089.012-.036.006-.072.014-.108.005-.017.012-.031.015-.046z"/><path d="m10.316 21.715c.195.195.451.293.707.293s.512-.098.707-.293l.292-.292.292.292c.195.195.451.293.707.293s.512-.098.707-.293c.391-.391.391-1.023 0-1.414l-.292-.292.292-.292c.391-.391.391-1.023 0-1.414s-1.023-.391-1.414 0l-.292.292-.292-.292c-.391-.391-1.023-.391-1.414 0s-.391 1.023 0 1.414l.292.292-.292.292c-.39.39-.39 1.023 0 1.414z"/><path d="m19.296 13.702c.195.195.451.293.707.293s.512-.098.707-.293l.292-.292.292.292c.195.195.451.293.707.293s.512-.098.707-.293c.391-.391.391-1.023 0-1.414l-.292-.292.292-.292c.391-.391.391-1.023 0-1.414s-1.023-.391-1.414 0l-.292.292-.292-.292c-.391-.391-1.023-.391-1.414 0s-.391 1.023 0 1.414l.292.292-.292.292c-.391.391-.391 1.024 0 1.414z"/><path d="m25.718 40.318c-.391-.391-1.023-.391-1.414 0l-.292.292-.292-.292c-.391-.391-1.023-.391-1.414 0s-.391 1.023 0 1.414l.292.292-.292.292c-.391.391-.391 1.023 0 1.414.195.195.451.293.707.293s.512-.098.707-.293l.292-.292.292.292c.195.195.451.293.707.293s.512-.098.707-.293c.391-.391.391-1.023 0-1.414l-.292-.292.292-.292c.39-.39.39-1.023 0-1.414z"/><path d="m30.29 32.704c.195.195.451.293.707.293s.512-.098.707-.293l.292-.292.292.292c.195.195.451.293.707.293s.512-.098.707-.293c.391-.391.391-1.023 0-1.414l-.292-.292.292-.292c.391-.391.391-1.023 0-1.414s-1.023-.391-1.414 0l-.292.292-.292-.292c-.391-.391-1.023-.391-1.414 0s-.391 1.023 0 1.414l.292.292-.292.292c-.391.391-.391 1.023 0 1.414z"/><path d="m46.088 39.836c-.352-.254-.824-.254-1.176 0l-6.5 4.721c-.351.255-.497.707-.363 1.119l2.482 7.634c.134.411.518.69.951.69h8.032c.433 0 .816-.278.951-.69l2.485-7.634c.134-.412-.013-.864-.363-1.119zm2.7 12.164h-6.579l-2.033-6.252 5.324-3.866 5.324 3.866z"/></g></svg>